<svg width="675" height="139" viewBox="0 0 675 139" fill="none" xmlns="http://www.w3.org/2000/svg">
<g filter="url(#filter0_d_766_497)">
<path d="M83.6582 19.5334C88.0622 25.2219 88.9797 32.5619 88.9797 39.7183C88.9797 47.0583 87.6952 54.5818 83.2912 60.4538C79.0707 65.7752 72.2813 69.4452 65.3083 72.3812C59.0693 75.3172 52.0963 77.8862 44.3894 77.8862C42.1874 77.8862 42.1874 77.8862 39.8019 77.8862C36.8659 77.8862 34.6639 79.3542 34.6639 81.7397C33.7464 95.6856 33.3794 95.6856 33.3794 109.815C33.3794 114.219 36.3154 118.99 39.2514 122.477C41.6369 125.413 39.2514 127.982 35.2144 127.982C22.9199 127.982 22.9199 128.165 10.6255 128.165C6.40501 128.165 3.46902 125.046 5.85451 122.11C8.4235 118.623 11.7265 114.219 11.7265 109.815C11.7265 100.824 9.8915 100.824 9.8915 92.0156C9.8915 83.2077 10.2585 83.2077 10.2585 74.3997C10.2585 65.5917 11.3595 65.5917 11.3595 56.7838C11.3595 47.7923 11.91 47.7923 11.91 38.9843C11.91 30.1764 9.8915 30.1764 9.8915 21.3684C9.8915 16.5974 9.1575 11.8264 6.58851 8.52346C4.20302 5.58748 6.40501 1 10.6255 1C15.947 1 22.3694 3.38548 28.2414 3.38548C37.9669 3.56899 46.0409 2.65149 46.0409 2.83499C53.3808 3.01849 60.7208 3.75249 66.7763 6.50497C73.5658 9.62446 79.6212 14.2119 83.6582 19.5334ZM58.3353 52.5633C62.7393 49.0768 65.6753 45.0398 65.6753 39.7183C65.6753 34.3969 63.6568 29.2589 59.2528 25.9559C55.2158 23.0199 49.7108 20.4509 44.0224 20.2674C42.0039 20.2674 42.0039 20.8179 39.8019 20.8179C36.8659 20.8179 33.5629 23.5704 33.5629 25.9559C33.5629 39.9018 33.9299 39.9018 33.9299 54.0313C33.9299 56.4168 36.8659 58.2518 39.8019 58.2518C42.0039 58.2518 42.0039 59.1693 44.0224 59.1693C49.7108 58.9858 54.4818 55.4993 58.3353 52.5633Z" fill="url(#paint0_linear_766_497)"/>
<path d="M103.535 105.962C109.957 99.5391 115.829 99.3556 122.435 105.595C128.674 111.834 128.674 118.256 122.435 124.312C115.829 130.734 112.159 127.064 104.085 123.211C95.2774 118.99 97.1124 112.017 103.535 105.962ZM130.509 7.23897C137.849 14.2119 122.252 16.0469 122.252 25.2219C122.252 27.7909 122.068 34.7639 121.701 43.3883C121.518 49.0768 119.683 55.3158 119.499 61.5548C119.316 67.7937 119.866 74.0327 119.683 79.7212C119.499 87.4282 118.949 93.6671 118.949 97.5206C112.893 99.3556 112.71 99.3556 106.654 97.5206C106.654 93.4836 106.654 87.4282 106.287 79.7212C106.104 74.0327 104.819 67.7937 104.636 61.5548C104.269 55.3158 103.718 49.0768 103.351 43.3883C102.984 34.7639 103.902 27.7909 103.902 25.2219C103.902 16.0469 87.387 13.8449 94.7269 6.87198C100.966 0.816492 104.269 9.99146 112.893 8.15647C122.068 6.13798 124.27 1.1835 130.509 7.23897Z" fill="url(#paint1_linear_766_497)"/>
<path d="M227.784 122.293C229.986 125.046 227.05 129.083 223.013 129.083C211.269 129.083 211.269 128.165 199.709 128.165C197.323 128.165 196.039 127.798 195.488 125.963C192.369 116.788 191.635 116.972 188.515 107.797C185.396 98.6216 185.212 98.6216 182.093 89.4467C178.973 80.2717 180.074 79.7212 176.955 70.5462C175.487 65.9587 165.945 67.0597 165.945 72.0142C165.945 81.5562 167.229 81.5562 167.229 91.0981C167.229 100.64 166.862 100.64 166.862 109.999C166.862 114.953 169.615 118.807 172.551 122.11C174.753 124.862 171.633 129.266 167.413 129.266C154.568 129.266 154.568 130 141.723 130C137.502 130 135.484 125.963 137.686 123.211C140.438 119.724 141.539 114.953 141.539 109.999C141.539 101.191 141.906 101.191 141.906 92.3826C141.906 83.5747 143.191 83.5747 143.191 74.7667C143.191 65.9587 142.64 65.9587 142.64 56.9673C142.64 48.1593 141.723 48.1593 141.723 39.3513C141.723 30.5434 142.824 30.5434 142.824 21.5519C142.824 16.9644 139.888 12.5604 137.135 9.07396C134.933 6.32148 137.502 1.55049 141.723 1.55049C148.696 1.55049 148.696 2.28449 155.669 2.28449C162.825 2.28449 162.825 2.65149 169.798 2.65149C172.184 2.65149 175.303 3.38548 176.037 5.40398C179.34 15.4964 178.056 15.8634 181.542 25.9559C184.845 36.0484 184.478 36.2319 187.965 46.3243C189.433 51.0953 199.158 49.9943 199.158 45.0398C199.158 33.2959 197.69 33.2959 197.69 21.5519C197.69 16.9644 195.855 12.377 193.286 8.70697C191.084 5.95447 193.286 3.20198 197.14 3.20198C209.985 3.20198 209.985 1.9175 223.013 1.9175C227.05 1.9175 229.619 6.32148 227.6 9.07396C224.665 12.5604 221.362 16.9644 221.362 21.5519C221.362 30.5434 222.646 30.5434 222.646 39.3513C222.646 48.1593 222.279 48.1593 222.279 56.9673C222.279 65.7752 220.995 65.7752 220.995 74.5832C220.995 83.5747 220.811 83.5747 220.811 92.3826C220.811 101.191 221.912 101.191 221.912 109.999C221.912 114.953 225.032 118.99 227.784 122.293Z" fill="url(#paint2_linear_766_497)"/>
<path d="M319.945 69.9957C325.817 69.9957 329.671 75.3172 327.102 79.5377C325.267 82.4737 324.716 91.0981 324.716 93.3001C324.533 100.457 321.046 107.43 316.459 112.935C312.055 118.073 305.999 122.11 299.026 125.046C292.971 127.615 278.291 128.165 278.291 128.165C270.767 128.165 263.427 128.349 257.188 125.78C250.399 122.844 245.444 117.339 241.224 112.201C236.636 106.696 232.599 100.457 232.416 93.3001C232.232 83.3912 234.067 83.3912 234.067 73.4822C234.067 63.3898 234.067 63.3898 234.067 53.4808C234.067 43.5718 233.517 43.5718 233.517 33.4794C233.7 27.9744 234.251 22.1024 237.37 17.6984C240.49 13.6615 245.995 11.4595 251.133 9.07396C255.72 7.05548 260.675 5.95447 266.547 5.58748C267.648 5.40398 269.116 4.85348 270.033 4.85348C277.924 4.85348 282.878 2.46799 286.365 1.55049C290.585 0.266001 294.255 3.75249 295.356 7.23897C297.558 14.5789 298.109 14.3954 300.311 21.9189C301.228 25.4054 297.742 27.2404 294.255 25.5889C291.87 24.6714 289.117 23.7539 286.365 23.3869C285.814 23.2034 270.4 18.2489 260.858 27.0569C258.289 28.8919 255.17 30.7269 255.17 33.8464C255.17 43.7553 257.005 43.7553 257.005 53.4808C257.005 63.3898 255.537 63.3898 255.537 73.2987C255.537 83.2077 257.005 83.2077 257.188 92.9331C257.555 101.007 263.427 108.347 272.786 110.366C274.804 110.366 276.456 110.549 278.474 110.549C280.493 110.549 282.328 110.549 284.346 110.366C293.521 108.347 300.678 101.007 301.045 93.1166C301.045 90.9146 301.045 90.9146 301.045 88.8962C301.045 88.7127 300.678 88.1622 300.678 88.1622C296.641 88.3457 292.787 90.1807 289.301 91.6487C285.631 93.1166 281.043 90.5476 281.961 87.0612C284.163 79.7212 284.53 79.7212 286.548 72.3812C287.649 69.0782 291.686 66.6927 295.907 67.7937C298.843 68.7112 303.063 69.0782 309.302 69.2617C314.624 69.2617 314.624 69.9957 319.945 69.9957Z" fill="url(#paint3_linear_766_497)"/>
<path d="M399.73 24.1209C400.464 26.8734 395.326 30.3599 392.207 28.8919C388.353 27.0569 383.582 24.3044 378.444 24.3044C372.389 24.8549 372.389 25.2219 366.15 25.2219C363.948 25.2219 361.012 25.7724 361.012 27.6074C361.012 38.0668 362.113 38.0668 362.48 48.5263C362.48 48.7098 362.48 48.3428 362.847 48.3428C369.086 48.3428 374.958 45.4068 379.178 43.0213C381.747 41.5533 385.05 43.5718 385.05 46.1408C385.05 57.8848 384.5 57.8848 384.5 69.6287C384.5 72.1977 381.747 74.2162 379.178 72.7482C374.774 70.1792 369.086 66.1422 362.847 66.1422C362.48 66.1422 362.113 67.0597 361.929 67.0597C361.746 77.8862 361.195 77.8862 361.195 88.7127C361.195 99.5391 363.214 99.5391 363.214 110.182C363.214 115.32 364.682 120.825 367.801 124.312C369.636 126.514 368.352 129.266 365.232 129.266C357.892 129.266 357.892 128.532 350.736 128.532C343.396 128.532 343.396 129.266 336.239 129.266C333.12 129.266 331.285 125.963 333.12 123.761C336.056 120.458 339.909 115.32 339.909 110.182C339.909 101.558 338.625 101.558 338.625 92.9331C338.625 84.4922 338.808 84.4922 338.808 75.8677C338.808 67.2432 338.992 67.2432 338.992 58.6188C338.992 49.9943 339.542 49.9943 339.542 41.3698C339.542 32.7454 338.992 32.7454 338.992 24.1209C338.992 18.7994 335.322 14.5789 332.386 11.0925C330.551 8.89047 333.12 4.48649 336.239 4.48649C344.13 4.48649 344.13 6.32148 352.204 6.32148C360.094 6.32148 360.094 5.22048 368.168 5.22048C378.077 5.22048 383.582 3.75249 386.885 2.28449C388.904 1.1835 391.106 3.01849 391.84 5.03698C394.776 14.9459 396.794 14.2119 399.73 24.1209Z" fill="url(#paint4_linear_766_497)"/>
<path d="M470.448 104.31C474.301 102.659 480.173 106.696 479.255 109.999C476.87 118.256 476.319 118.073 474.117 126.147C473.2 128.715 469.346 129.633 466.41 128.715C462.924 127.431 457.603 126.881 448.795 126.881C438.886 126.881 438.886 126.514 428.977 126.514C419.068 126.514 419.068 126.514 408.975 126.514C404.938 126.514 402.92 123.211 405.305 120.458C407.874 116.972 410.076 112.568 410.076 108.164C410.076 99.7226 408.608 99.7226 408.608 91.2816C408.608 82.6572 410.443 82.6572 410.443 74.2162C410.443 65.7752 408.608 65.7752 408.608 57.3343C408.608 48.8933 410.443 48.8933 410.443 40.2688C410.443 31.8279 409.893 31.8279 409.893 23.3869C409.893 18.9829 407.14 15.1294 404.571 11.643C402.186 8.89047 404.938 4.85348 408.975 4.85348C416.315 4.85348 416.315 5.95447 423.655 5.95447C430.812 5.95447 430.812 4.66998 438.152 4.66998C446.96 4.66998 452.281 4.11948 455.584 3.01849C458.337 1.9175 462.007 3.01849 462.557 5.58748C464.943 13.6615 466.044 13.4779 468.429 21.5519C469.53 25.0384 464.208 27.7909 460.355 26.1394C456.869 24.4879 452.281 24.6714 447.877 24.6714C442.556 24.6714 442.556 23.3869 437.418 23.3869C434.665 23.3869 431.179 25.4054 431.179 27.7909C431.179 37.3329 432.463 37.6999 433.014 46.6913C438.335 46.6913 443.657 45.5903 447.694 43.3883C450.997 41.7368 456.318 43.5718 456.318 46.8748C456.318 56.6003 454.116 56.6003 454.116 66.5092C454.116 69.6287 451.364 71.2802 447.877 69.4452C443.84 67.4267 438.335 65.0413 433.014 65.0413C432.647 65.0413 433.197 65.4082 433.197 65.9587C432.83 75.3172 432.096 75.3172 432.096 84.8592C432.096 94.4011 431.179 94.4011 431.179 103.943C431.179 106.145 434.665 107.43 437.418 107.43C448.061 107.43 448.061 108.898 458.887 108.898C463.108 108.898 466.961 105.778 470.448 104.31Z" fill="url(#paint5_linear_766_497)"/>
<path d="M576.955 72.0142C579.157 78.6202 581.726 85.7767 580.258 92.7496C579.157 96.6031 576.037 99.3556 574.386 103.026C573.652 104.677 568.514 112.384 566.679 114.403C563.192 117.522 559.339 120.275 554.751 122.844C549.98 125.229 545.209 127.798 539.704 128.715C534.383 130 528.144 130 522.639 129.266C519.886 129.266 516.95 128.532 514.381 127.798C513.28 127.431 513.28 127.615 512.363 127.248C510.161 126.697 507.225 125.046 506.307 124.679C501.169 122.66 496.582 120.091 492.912 116.605C488.875 112.935 485.939 108.347 484.471 103.576C483.003 98.9886 482.819 94.4011 483.37 89.9972C484.104 87.4282 484.104 85.0427 485.021 83.0242C485.939 80.6387 488.508 78.8037 490.159 77.1522C493.462 73.2987 497.683 69.4452 502.454 67.6102C507.408 65.5917 513.28 66.3257 518.418 66.3257C520.987 66.3257 523.556 66.1422 525.942 66.8762C527.226 67.0597 528.144 67.6102 529.428 67.9772C531.08 68.5277 535.3 68.5277 536.401 69.0782C539.337 70.5462 540.805 74.3997 540.438 77.3357C540.255 78.6202 539.521 79.7212 538.053 80.8222C535.667 82.2902 531.997 82.6572 529.428 81.0057C528.694 80.4552 523.373 77.8862 522.822 77.8862C521.354 77.8862 519.886 77.3357 518.785 77.7027C513.097 77.8862 507.225 80.8222 504.289 84.8592C503.188 85.7767 502.087 90.7311 501.72 92.0156C501.536 94.4011 503.004 96.6031 503.922 98.9886C505.757 104.127 509.06 108.347 514.932 110.916C517.317 111.65 517.317 111.283 519.703 112.017C521.538 112.384 523.006 113.118 524.474 113.485C528.327 113.852 532.181 114.77 535.3 114.403C541.906 112.935 555.118 98.0711 555.669 97.3371C557.137 94.9516 559.339 92.7496 560.073 90.3642C560.807 85.0427 559.339 80.2717 557.687 76.2347C556.219 72.1977 553.834 69.2617 551.265 67.0597C548.329 64.8577 545.026 64.6743 542.457 63.9403C539.521 63.3898 537.502 61.5548 536.218 61.1878C534.199 61.1878 522.088 60.4538 517.501 58.4353C512.546 55.8663 509.06 51.8293 506.124 47.7923C502.821 43.5718 501.536 38.9844 501.536 33.6629C501.536 28.3414 503.004 23.9374 506.124 19.5334C508.876 15.4964 512.546 12.5604 517.684 9.99146C522.088 7.97297 526.676 5.58748 532.364 5.22048C534.016 5.03698 534.016 4.85348 535.667 4.85348C545.943 4.85348 551.632 3.56899 554.568 2.10099C556.77 1 560.44 2.10099 560.99 3.93598C564.11 14.2119 564.11 14.2119 567.046 24.4879C567.596 26.6899 564.293 28.1579 561.908 26.8734C559.155 25.4054 555.302 24.6714 551.448 23.9374C551.081 23.9374 550.714 23.9374 549.98 23.9374C532.364 20.4509 526.492 26.1394 526.492 26.1394C523.923 27.9744 522.272 30.5434 522.272 33.6629C522.272 38.6174 535.851 43.9388 538.603 44.1223C541.723 44.6728 545.576 45.2233 550.164 46.8748C552.733 47.4253 555.669 48.1593 558.238 49.6273C560.807 50.9118 563.743 52.5633 566.312 54.5818C571.633 58.8023 575.12 65.4082 576.955 72.0142Z" fill="url(#paint6_linear_766_497)"/>
<path d="M669.914 21.5519C670.832 25.2219 666.428 27.4239 662.391 25.7724C658.721 24.3044 654.5 24.4879 650.28 24.4879C645.325 24.4879 645.325 25.0384 640.371 25.0384C637.435 25.0384 634.682 25.9559 634.682 28.5249C634.682 38.8009 634.132 38.8009 634.132 48.8933C634.132 59.1693 633.948 59.1693 633.948 69.4452C633.948 79.7212 634.682 79.7212 634.682 89.9972C634.682 100.09 633.948 100.09 633.948 110.366C633.948 114.77 637.251 118.99 639.82 122.11C642.022 125.229 639.453 129.633 635.049 129.633C623.489 129.633 623.489 128.899 611.928 128.899C607.524 128.899 605.139 125.229 607.341 122.293C609.91 118.99 612.112 114.77 612.112 110.366C612.112 100.09 611.745 100.09 611.745 89.9972C611.745 79.7212 611.928 79.7212 611.928 69.4452C611.928 59.1693 611.011 59.1693 611.011 49.0768C611.011 38.8009 611.745 38.8009 611.745 28.5249C611.745 25.9559 609.359 23.9374 606.423 23.9374C601.469 23.9374 601.469 24.6714 596.698 24.6714C592.477 24.6714 587.89 24.1209 584.587 25.5889C580.183 27.2404 575.596 25.0384 576.513 21.3684C578.715 13.4779 579.816 13.8449 582.201 6.13798C582.935 3.38548 586.055 1.36699 589.358 2.46799C592.294 3.56899 596.698 4.11948 603.12 4.48649C613.213 4.66998 613.213 4.66998 623.489 4.66998C633.581 4.66998 633.581 5.77097 643.674 5.58748C650.28 5.40398 654.867 4.48649 657.987 3.38548C661.106 2.28449 664.226 3.20198 664.96 5.95447C667.162 13.8449 667.529 13.6615 669.914 21.5519Z" fill="url(#paint7_linear_766_497)"/>
</g>
<defs>
<filter id="filter0_d_766_497" x="0.8" y="0.8" width="673.437" height="137.4" filterUnits="userSpaceOnUse" color-interpolation-filters="sRGB">
<feFlood flood-opacity="0" result="BackgroundImageFix"/>
<feColorMatrix in="SourceAlpha" type="matrix" values="0 0 0 0 0 0 0 0 0 0 0 0 0 0 0 0 0 0 127 0" result="hardAlpha"/>
<feOffset dy="4"/>
<feGaussianBlur stdDeviation="2.1"/>
<feComposite in2="hardAlpha" operator="out"/>
<feColorMatrix type="matrix" values="0 0 0 0 0 0 0 0 0 0 0 0 0 0 0 0 0 0 0.25 0"/>
<feBlend mode="normal" in2="BackgroundImageFix" result="effect1_dropShadow_766_497"/>
<feBlend mode="normal" in="SourceGraphic" in2="effect1_dropShadow_766_497" result="shape"/>
</filter>
<linearGradient id="paint0_linear_766_497" x1="-1.42735" y1="61.1878" x2="676.66" y2="61.1878" gradientUnits="userSpaceOnUse">
<stop stop-color="#CCDAFF"/>
<stop offset="0.0001" stop-color="#DAFFFB"/>
<stop offset="0.311" stop-color="#09D8C6"/>
<stop offset="1" stop-color="#003049"/>
</linearGradient>
<linearGradient id="paint1_linear_766_497" x1="-1.42735" y1="61.1878" x2="676.66" y2="61.1878" gradientUnits="userSpaceOnUse">
<stop stop-color="#CCDAFF"/>
<stop offset="0.0001" stop-color="#DAFFFB"/>
<stop offset="0.311" stop-color="#09D8C6"/>
<stop offset="1" stop-color="#003049"/>
</linearGradient>
<linearGradient id="paint2_linear_766_497" x1="-1.42735" y1="61.1878" x2="676.66" y2="61.1878" gradientUnits="userSpaceOnUse">
<stop stop-color="#CCDAFF"/>
<stop offset="0.0001" stop-color="#DAFFFB"/>
<stop offset="0.311" stop-color="#09D8C6"/>
<stop offset="1" stop-color="#003049"/>
</linearGradient>
<linearGradient id="paint3_linear_766_497" x1="-1.42735" y1="61.1878" x2="676.66" y2="61.1878" gradientUnits="userSpaceOnUse">
<stop stop-color="#CCDAFF"/>
<stop offset="0.0001" stop-color="#DAFFFB"/>
<stop offset="0.311" stop-color="#09D8C6"/>
<stop offset="1" stop-color="#003049"/>
</linearGradient>
<linearGradient id="paint4_linear_766_497" x1="-1.42735" y1="61.1878" x2="676.66" y2="61.1878" gradientUnits="userSpaceOnUse">
<stop stop-color="#CCDAFF"/>
<stop offset="0.0001" stop-color="#DAFFFB"/>
<stop offset="0.311" stop-color="#09D8C6"/>
<stop offset="1" stop-color="#003049"/>
</linearGradient>
<linearGradient id="paint5_linear_766_497" x1="-1.42735" y1="61.1878" x2="676.66" y2="61.1878" gradientUnits="userSpaceOnUse">
<stop stop-color="#CCDAFF"/>
<stop offset="0.0001" stop-color="#DAFFFB"/>
<stop offset="0.311" stop-color="#09D8C6"/>
<stop offset="1" stop-color="#003049"/>
</linearGradient>
<linearGradient id="paint6_linear_766_497" x1="-1.42735" y1="61.1878" x2="676.66" y2="61.1878" gradientUnits="userSpaceOnUse">
<stop stop-color="#CCDAFF"/>
<stop offset="0.0001" stop-color="#DAFFFB"/>
<stop offset="0.311" stop-color="#09D8C6"/>
<stop offset="1" stop-color="#003049"/>
</linearGradient>
<linearGradient id="paint7_linear_766_497" x1="-1.42735" y1="61.1878" x2="676.66" y2="61.1878" gradientUnits="userSpaceOnUse">
<stop stop-color="#CCDAFF"/>
<stop offset="0.0001" stop-color="#DAFFFB"/>
<stop offset="0.311" stop-color="#09D8C6"/>
<stop offset="1" stop-color="#003049"/>
</linearGradient>
</defs>
</svg>
