<svg width="167" height="147" viewBox="0 0 167 147" fill="none" xmlns="http://www.w3.org/2000/svg">
<g filter="url(#filter0_d_766_530)">
<path d="M41.5474 9.6202C43.5937 12.266 44.02 15.6799 44.02 19.0085C44.02 22.4225 43.4232 25.9218 41.3769 28.6529C39.4159 31.128 36.2613 32.835 33.0214 34.2006C30.1226 35.5661 26.8827 36.761 23.3017 36.761C22.2786 36.761 22.2786 36.761 21.1702 36.761C19.806 36.761 18.7829 37.4438 18.7829 38.5533C18.3566 45.0398 18.1861 45.0398 18.1861 51.6117C18.1861 53.66 19.5503 55.8791 20.9144 57.5007C22.0228 58.8663 20.9144 60.0612 19.0387 60.0612C13.3262 60.0612 13.3263 60.1465 7.61381 60.1465C5.65282 60.1465 4.28865 58.6956 5.39704 57.33C6.59068 55.7084 8.12537 53.66 8.12537 51.6117C8.12537 47.4296 7.27276 47.4296 7.27276 43.3329C7.27276 39.2361 7.44329 39.2361 7.44329 35.1394C7.44329 31.0427 7.95485 31.0427 7.95485 26.9459C7.95485 22.7639 8.21063 22.7639 8.21063 18.6671C8.21063 14.5704 7.27276 14.5704 7.27276 10.4737C7.27276 8.25462 6.93172 6.03556 5.73808 4.49928C4.62969 3.13371 5.65282 1 7.61381 1C10.0864 1 13.0705 2.10953 15.7988 2.10953C20.3176 2.19488 24.0691 1.76814 24.0691 1.85348C27.4795 1.93883 30.8899 2.28023 33.7035 3.56045C36.8581 5.01138 39.6717 7.14509 41.5474 9.6202ZM29.7815 24.9829C31.8278 23.3613 33.1919 21.4836 33.1919 19.0085C33.1919 16.5334 32.2541 14.1437 30.2078 12.6074C28.3321 11.2418 25.7743 10.0469 23.1312 9.96159C22.1933 9.96159 22.1933 10.2176 21.1702 10.2176C19.806 10.2176 18.2714 11.4979 18.2714 12.6074C18.2714 19.0939 18.4419 19.0939 18.4419 25.6657C18.4419 26.7752 19.806 27.6287 21.1702 27.6287C22.1933 27.6287 22.1933 28.0555 23.1312 28.0555C25.7743 27.9701 27.991 26.3485 29.7815 24.9829Z" fill="url(#paint0_linear_766_530)"/>
<path d="M50.7829 49.8193C53.767 46.8321 56.4953 46.7468 59.5647 49.6486C62.4635 52.5505 62.4635 55.5377 59.5647 58.3542C56.4953 61.3414 54.7901 59.6344 51.0387 57.8421C46.9462 55.8791 47.7988 52.6358 50.7829 49.8193ZM63.3162 3.90185C66.7266 7.14509 59.4794 7.99857 59.4794 12.266C59.4794 13.4609 59.3942 16.7041 59.2236 20.7155C59.1384 23.3613 58.2858 26.2632 58.2005 29.165C58.1153 32.0669 58.371 34.9687 58.2858 37.6145C58.2005 41.1991 57.9447 44.101 57.9447 45.8933C55.1312 46.7468 55.0459 46.7468 52.2323 45.8933C52.2323 44.0156 52.2323 41.1991 52.0618 37.6145C51.9765 34.9687 51.3797 32.0669 51.2944 29.165C51.1239 26.2632 50.8681 23.3613 50.6976 20.7155C50.5271 16.7041 50.9534 13.4609 50.9534 12.266C50.9534 7.99857 43.28 6.97439 46.6904 3.73115C49.5892 0.914648 51.1239 5.18207 55.1311 4.32859C59.3942 3.38976 60.4173 1.08535 63.3162 3.90185Z" fill="url(#paint1_linear_766_530)"/>
<path d="M108.513 57.4154C109.537 58.6956 108.172 60.5733 106.297 60.5733C100.84 60.5733 100.84 60.1465 95.4686 60.1465C94.3603 60.1465 93.7634 59.9758 93.5077 59.1223C92.0582 54.8549 91.7172 54.9403 90.2678 50.6728C88.8183 46.4054 88.7331 46.4054 87.2836 42.138C85.8342 37.8706 86.3458 37.6145 84.8964 33.3471C84.2143 31.2134 79.7807 31.7255 79.7807 34.0299C79.7807 38.468 80.3776 38.468 80.3776 42.9061C80.3776 47.3442 80.207 47.3442 80.207 51.697C80.207 54.0014 81.4859 55.7937 82.8501 57.33C83.8732 58.6102 82.4238 60.6586 80.4628 60.6586C74.4946 60.6586 74.4946 61 68.5264 61C66.5654 61 65.6275 59.1223 66.6506 57.8421C67.9295 56.2205 68.4411 54.0014 68.4411 51.697C68.4411 47.6003 68.6116 47.6003 68.6116 43.5036C68.6116 39.4068 69.2084 39.4068 69.2084 35.3101C69.2084 31.2134 68.9527 31.2134 68.9527 27.0313C68.9527 22.9346 68.5264 22.9346 68.5264 18.8378C68.5264 14.7411 69.0379 14.7411 69.0379 10.559C69.0379 8.42532 67.6737 6.37695 66.3948 4.75533C65.3717 3.47511 66.5654 1.25604 68.5264 1.25604C71.7663 1.25604 71.7663 1.59744 75.0061 1.59744C78.3313 1.59744 78.3313 1.76814 81.5712 1.76814C82.6796 1.76814 84.129 2.10953 84.4701 3.04836C86.0047 7.74253 85.4079 7.91323 87.0279 12.6074C88.5626 17.3016 88.392 17.3869 90.012 22.0811C90.6941 24.3001 95.2129 23.7881 95.2129 21.4836C95.2129 16.0213 94.5308 16.0213 94.5308 10.559C94.5308 8.42532 93.6782 6.29161 92.4845 4.58464C91.4614 3.30441 92.4845 2.02418 94.275 2.02418C100.243 2.02418 100.243 1.42674 106.297 1.42674C108.172 1.42674 109.366 3.47511 108.428 4.75533C107.064 6.37695 105.529 8.42532 105.529 10.559C105.529 14.7411 106.126 14.7411 106.126 18.8378C106.126 22.9346 105.956 22.9346 105.956 27.0313C105.956 31.128 105.359 31.128 105.359 35.2248C105.359 39.4068 105.274 39.4068 105.274 43.5036C105.274 47.6003 105.785 47.6003 105.785 51.697C105.785 54.0014 107.235 55.8791 108.513 57.4154Z" fill="url(#paint2_linear_766_530)"/>
<path d="M151.335 33.091C154.063 33.091 155.854 35.5661 154.66 37.5292C153.807 38.8947 153.552 42.9061 153.552 43.9303C153.466 47.2589 151.846 50.5021 149.715 53.0626C147.669 55.4523 144.855 57.33 141.615 58.6956C138.802 59.8905 131.981 60.1465 131.981 60.1465C128.485 60.1465 125.075 60.2319 122.176 59.037C119.021 57.6714 116.719 55.111 114.758 52.7212C112.627 50.1607 110.751 47.2589 110.666 43.9303C110.58 39.3215 111.433 39.3215 111.433 34.7127C111.433 30.0185 111.433 30.0185 111.433 25.4097C111.433 20.8009 111.177 20.8009 111.177 16.1067C111.262 13.5462 111.518 10.8151 112.968 8.76671C114.417 6.88905 116.975 5.86486 119.362 4.75533C121.494 3.8165 123.796 3.30441 126.524 3.13371C127.036 3.04836 127.718 2.79232 128.144 2.79232C131.81 2.79232 134.112 1.68278 135.732 1.25604C137.693 0.658605 139.398 2.28023 139.91 3.90185C140.933 7.31579 141.189 7.23044 142.212 10.7297C142.638 12.3513 141.018 13.2048 139.398 12.4367C138.29 12.01 137.011 11.5832 135.732 11.4125C135.476 11.3272 128.315 9.02276 123.881 13.1195C122.687 13.973 121.238 14.8265 121.238 16.2774C121.238 20.8862 122.091 20.8862 122.091 25.4097C122.091 30.0185 121.408 30.0185 121.408 34.6273C121.408 39.2361 122.091 39.2361 122.176 43.7596C122.346 47.5149 125.075 50.9289 129.423 51.8677C130.361 51.8677 131.128 51.9531 132.066 51.9531C133.004 51.9531 133.856 51.9531 134.794 51.8677C139.057 50.9289 142.382 47.5149 142.553 43.8449C142.553 42.8208 142.553 42.8208 142.553 41.8819C142.553 41.7966 142.382 41.5405 142.382 41.5405C140.507 41.6259 138.716 42.4794 137.096 43.1622C135.391 43.845 133.26 42.6501 133.686 41.0284C134.709 37.6145 134.88 37.6145 135.817 34.2006C136.329 32.6643 138.205 31.5548 140.166 32.0669C141.53 32.4936 143.491 32.6643 146.39 32.7496C148.862 32.7496 148.862 33.091 151.335 33.091Z" fill="url(#paint3_linear_766_530)"/>
<path d="M36.6876 89.2418C37.0286 90.522 34.6414 92.1437 33.1919 91.4609C31.4015 90.6074 29.1847 89.3272 26.7974 89.3272C23.9838 89.5832 23.9838 89.7539 21.0849 89.7539C20.0618 89.7539 18.6977 90.01 18.6977 90.8634C18.6977 95.7283 19.2092 95.7283 19.3797 100.593C19.3797 100.679 19.3797 100.508 19.5503 100.508C22.4491 100.508 25.1775 99.1422 27.1384 98.0327C28.3321 97.3499 29.8668 98.2888 29.8668 99.4836C29.8668 104.946 29.611 104.946 29.611 110.408C29.611 111.603 28.3321 112.542 27.1384 111.859C25.0922 110.664 22.4491 108.787 19.5503 108.787C19.3797 108.787 19.2092 109.213 19.124 109.213C19.0387 114.249 18.7829 114.249 18.7829 119.284C18.7829 124.32 19.7208 124.32 19.7208 129.27C19.7208 131.66 20.4029 134.22 21.8523 135.842C22.7049 136.866 22.1081 138.147 20.6586 138.147C17.2482 138.147 17.2482 137.805 13.9231 137.805C10.5127 137.805 10.5127 138.147 7.1875 138.147C5.73808 138.147 4.88547 136.61 5.73807 135.586C7.10224 134.05 8.89272 131.66 8.89272 129.27C8.89272 125.259 8.2959 125.259 8.2959 121.248C8.2959 117.321 8.38115 117.321 8.38115 113.31C8.38115 109.299 8.4664 109.299 8.4664 105.287C8.4664 101.276 8.72219 101.276 8.72219 97.2646C8.72219 93.2532 8.4664 93.2532 8.4664 89.2418C8.4664 86.7667 6.7612 84.8037 5.39704 83.1821C4.54443 82.1579 5.73808 80.1095 7.1875 80.1095C10.8537 80.1095 10.8537 80.963 14.6052 80.963C18.2714 80.963 18.2714 80.4509 22.0228 80.4509C26.6269 80.4509 29.1847 79.7681 30.7194 79.0854C31.6572 78.5733 32.6804 79.4267 33.0214 80.3656C34.3856 84.9744 35.3234 84.633 36.6876 89.2418Z" fill="url(#paint4_linear_766_530)"/>
<path d="M69.5455 126.539C71.336 125.771 74.0643 127.649 73.638 129.185C72.5296 133.026 72.2738 132.94 71.2507 136.696C70.8244 137.89 69.0339 138.317 67.6698 137.89C66.0498 137.293 63.5773 137.037 59.4848 137.037C54.8807 137.037 54.8807 136.866 50.2766 136.866C45.6726 136.866 45.6726 136.866 40.9833 136.866C39.1075 136.866 38.1697 135.33 39.278 134.05C40.4717 132.428 41.4948 130.38 41.4948 128.331C41.4948 124.405 40.8127 124.405 40.8127 120.479C40.8127 116.468 41.6653 116.468 41.6653 112.542C41.6653 108.616 40.8127 108.616 40.8127 104.69C40.8127 100.764 41.6653 100.764 41.6653 96.7525C41.6653 92.8265 41.4096 92.8265 41.4096 88.9004C41.4096 86.8521 40.1307 85.0597 38.937 83.4381C37.8286 82.1579 39.1075 80.2802 40.9833 80.2802C44.3937 80.2802 44.3937 80.7923 47.8041 80.7923C51.1292 80.7923 51.1293 80.1949 54.5397 80.1949C58.6322 80.1949 61.1047 79.9388 62.6394 79.4267C63.9183 78.9147 65.6235 79.4267 65.8793 80.6216C66.9877 84.377 67.4993 84.2916 68.6076 88.0469C69.1192 89.6686 66.6466 90.9488 64.8562 90.1807C63.2362 89.4125 61.1047 89.4979 59.0585 89.4979C56.5859 89.4979 56.5859 88.9004 54.1986 88.9004C52.9197 88.9004 51.2998 89.8393 51.2998 90.9488C51.2998 95.3869 51.8966 95.5576 52.1524 99.7397C54.6249 99.7397 57.0975 99.2276 58.9732 98.2034C60.5079 97.4353 62.9804 98.2888 62.9804 99.825C62.9804 104.349 61.9573 104.349 61.9573 108.957C61.9573 110.408 60.6784 111.176 59.0585 110.323C57.1827 109.384 54.6249 108.275 52.1524 108.275C51.9819 108.275 52.2376 108.445 52.2376 108.701C52.0671 113.054 51.7261 113.054 51.7261 117.492C51.7261 121.93 51.2998 121.93 51.2998 126.368C51.2998 127.393 52.9197 127.99 54.1986 127.99C59.1437 127.99 59.1437 128.673 64.1741 128.673C66.1351 128.673 67.9256 127.222 69.5455 126.539Z" fill="url(#paint5_linear_766_530)"/>
<path d="M119.032 111.518C120.056 114.59 121.249 117.919 120.567 121.162C120.056 122.954 118.606 124.235 117.839 125.942C117.498 126.71 115.11 130.294 114.258 131.233C112.638 132.684 110.847 133.964 108.716 135.159C106.499 136.269 104.282 137.464 101.725 137.89C99.2521 138.488 96.3532 138.488 93.7954 138.147C92.5165 138.147 91.1523 137.805 89.9587 137.464C89.4471 137.293 89.4471 137.378 89.0208 137.208C87.9977 136.952 86.6336 136.183 86.2073 136.013C83.82 135.074 81.6884 133.879 79.9832 132.257C78.1075 130.551 76.7433 128.417 76.0613 126.198C75.3792 124.064 75.2939 121.93 75.5497 119.882C75.8907 118.687 75.8907 117.578 76.317 116.639C76.7433 115.529 77.937 114.676 78.7043 113.908C80.239 112.115 82.2 110.323 84.4168 109.469C86.7188 108.531 89.4471 108.872 91.8344 108.872C93.0281 108.872 94.2217 108.787 95.3301 109.128C95.9269 109.213 96.3532 109.469 96.95 109.64C97.7174 109.896 99.6784 109.896 100.19 110.152C101.554 110.835 102.236 112.627 102.066 113.993C101.98 114.59 101.639 115.102 100.957 115.615C99.8489 116.297 98.1437 116.468 96.95 115.7C96.609 115.444 94.1364 114.249 93.8807 114.249C93.1986 114.249 92.5165 113.993 92.005 114.164C89.3619 114.249 86.6336 115.615 85.2694 117.492C84.7578 117.919 84.2463 120.223 84.0757 120.821C83.9905 121.93 84.6726 122.954 85.0989 124.064C85.9515 126.454 87.4861 128.417 90.2145 129.612C91.3228 129.953 91.3228 129.782 92.4312 130.124C93.2838 130.294 93.9659 130.636 94.648 130.807C96.4385 130.977 98.229 131.404 99.6784 131.233C102.748 130.551 108.887 123.637 109.142 123.296C109.824 122.186 110.847 121.162 111.189 120.053C111.53 117.578 110.847 115.358 110.08 113.481C109.398 111.603 108.29 110.238 107.096 109.213C105.732 108.189 104.197 108.104 103.004 107.762C101.639 107.506 100.702 106.653 100.105 106.482C99.1668 106.482 93.5396 106.141 91.4081 105.202C89.1061 104.007 87.4862 102.129 86.122 100.252C84.5873 98.2888 83.9905 96.155 83.9905 93.6799C83.9905 91.2048 84.6726 89.1565 86.122 87.1081C87.4009 85.2304 89.1061 83.8649 91.4934 82.67C93.5396 81.7312 95.6712 80.6216 98.3142 80.4509C99.0816 80.3656 99.0816 80.2802 99.8489 80.2802C104.624 80.2802 107.267 79.6828 108.631 79C109.654 78.4879 111.359 79 111.615 79.8535C113.064 84.633 113.064 84.633 114.428 89.4125C114.684 90.4367 113.15 91.1195 112.041 90.522C110.762 89.8393 108.972 89.4979 107.181 89.1565C107.011 89.1565 106.84 89.1565 106.499 89.1565C98.3142 87.5349 95.5859 90.1807 95.5859 90.1807C94.3922 91.0341 93.6249 92.229 93.6249 93.6799C93.6249 95.9843 99.9342 98.4595 101.213 98.5448C102.662 98.8009 104.453 99.0569 106.584 99.825C107.778 100.081 109.142 100.422 110.336 101.105C111.53 101.703 112.894 102.471 114.087 103.41C116.56 105.373 118.18 108.445 119.032 111.518Z" fill="url(#paint6_linear_766_530)"/>
<path d="M162.225 88.0469C162.651 89.7539 160.605 90.7781 158.729 90.01C157.024 89.3272 155.063 89.4125 153.102 89.4125C150.8 89.4125 150.8 89.6686 148.498 89.6686C147.134 89.6686 145.855 90.0953 145.855 91.2902C145.855 96.0697 145.599 96.0697 145.599 100.764C145.599 105.543 145.514 105.543 145.514 110.323C145.514 115.102 145.855 115.102 145.855 119.882C145.855 124.576 145.514 124.576 145.514 129.356C145.514 131.404 147.049 133.367 148.242 134.818C149.265 136.269 148.072 138.317 146.025 138.317C140.654 138.317 140.654 137.976 135.283 137.976C133.236 137.976 132.128 136.269 133.151 134.903C134.345 133.367 135.368 131.404 135.368 129.356C135.368 124.576 135.197 124.576 135.197 119.882C135.197 115.102 135.283 115.102 135.283 110.323C135.283 105.543 134.856 105.543 134.856 100.849C134.856 96.0697 135.197 96.0697 135.197 91.2902C135.197 90.0953 134.089 89.1565 132.725 89.1565C130.423 89.1565 130.423 89.4979 128.206 89.4979C126.245 89.4979 124.113 89.2418 122.579 89.9246C120.533 90.6928 118.401 89.6686 118.827 87.9616C119.85 84.2916 120.362 84.4623 121.47 80.8777C121.811 79.5974 123.261 78.6586 124.796 79.1707C126.16 79.6828 128.206 79.9388 131.19 80.1095C135.879 80.1949 135.879 80.1949 140.654 80.1949C145.343 80.1949 145.343 80.707 150.033 80.6216C153.102 80.5363 155.234 80.1095 156.683 79.5974C158.132 79.0853 159.582 79.5121 159.923 80.7923C160.946 84.4623 161.116 84.377 162.225 88.0469Z" fill="url(#paint7_linear_766_530)"/>
</g>
<defs>
<filter id="filter0_d_766_530" x="0.8" y="0.8" width="165.682" height="145.777" filterUnits="userSpaceOnUse" color-interpolation-filters="sRGB">
<feFlood flood-opacity="0" result="BackgroundImageFix"/>
<feColorMatrix in="SourceAlpha" type="matrix" values="0 0 0 0 0 0 0 0 0 0 0 0 0 0 0 0 0 0 127 0" result="hardAlpha"/>
<feOffset dy="4"/>
<feGaussianBlur stdDeviation="2.1"/>
<feComposite in2="hardAlpha" operator="out"/>
<feColorMatrix type="matrix" values="0 0 0 0 0 0 0 0 0 0 0 0 0 0 0 0 0 0 0.25 0"/>
<feBlend mode="normal" in2="BackgroundImageFix" result="effect1_dropShadow_766_530"/>
<feBlend mode="normal" in="SourceGraphic" in2="effect1_dropShadow_766_530" result="shape"/>
</filter>
<linearGradient id="paint0_linear_766_530" x1="2.01387" y1="28.9943" x2="317.078" y2="28.9943" gradientUnits="userSpaceOnUse">
<stop stop-color="#CCDAFF"/>
<stop offset="0.0001" stop-color="#DAFFFB"/>
<stop offset="0.311" stop-color="#09D8C6"/>
<stop offset="1" stop-color="#003049"/>
</linearGradient>
<linearGradient id="paint1_linear_766_530" x1="2.01387" y1="28.9943" x2="317.078" y2="28.9943" gradientUnits="userSpaceOnUse">
<stop stop-color="#CCDAFF"/>
<stop offset="0.0001" stop-color="#DAFFFB"/>
<stop offset="0.311" stop-color="#09D8C6"/>
<stop offset="1" stop-color="#003049"/>
</linearGradient>
<linearGradient id="paint2_linear_766_530" x1="2.01387" y1="28.9943" x2="317.078" y2="28.9943" gradientUnits="userSpaceOnUse">
<stop stop-color="#CCDAFF"/>
<stop offset="0.0001" stop-color="#DAFFFB"/>
<stop offset="0.311" stop-color="#09D8C6"/>
<stop offset="1" stop-color="#003049"/>
</linearGradient>
<linearGradient id="paint3_linear_766_530" x1="2.01387" y1="28.9943" x2="317.078" y2="28.9943" gradientUnits="userSpaceOnUse">
<stop stop-color="#CCDAFF"/>
<stop offset="0.0001" stop-color="#DAFFFB"/>
<stop offset="0.311" stop-color="#09D8C6"/>
<stop offset="1" stop-color="#003049"/>
</linearGradient>
<linearGradient id="paint4_linear_766_530" x1="2.01387" y1="28.9943" x2="317.078" y2="28.9943" gradientUnits="userSpaceOnUse">
<stop stop-color="#CCDAFF"/>
<stop offset="0.0001" stop-color="#DAFFFB"/>
<stop offset="0.311" stop-color="#09D8C6"/>
<stop offset="1" stop-color="#003049"/>
</linearGradient>
<linearGradient id="paint5_linear_766_530" x1="2.01387" y1="28.9943" x2="317.078" y2="28.9943" gradientUnits="userSpaceOnUse">
<stop stop-color="#CCDAFF"/>
<stop offset="0.0001" stop-color="#DAFFFB"/>
<stop offset="0.311" stop-color="#09D8C6"/>
<stop offset="1" stop-color="#003049"/>
</linearGradient>
<linearGradient id="paint6_linear_766_530" x1="2.01387" y1="28.9943" x2="317.078" y2="28.9943" gradientUnits="userSpaceOnUse">
<stop stop-color="#CCDAFF"/>
<stop offset="0.0001" stop-color="#DAFFFB"/>
<stop offset="0.311" stop-color="#09D8C6"/>
<stop offset="1" stop-color="#003049"/>
</linearGradient>
<linearGradient id="paint7_linear_766_530" x1="2.01387" y1="28.9943" x2="317.078" y2="28.9943" gradientUnits="userSpaceOnUse">
<stop stop-color="#CCDAFF"/>
<stop offset="0.0001" stop-color="#DAFFFB"/>
<stop offset="0.311" stop-color="#09D8C6"/>
<stop offset="1" stop-color="#003049"/>
</linearGradient>
</defs>
</svg>
